<svg width="62" height="62" viewBox="0 0 62 62" fill="none" xmlns="http://www.w3.org/2000/svg">
<path d="M7.4271 52.8292C5.96321 52.8292 4.70383 52.291 3.64897 51.2146C2.59411 50.1382 2.06668 48.8681 2.06668 47.4042C2.06668 45.8973 2.60488 44.6164 3.68126 43.5615C4.75765 42.5066 6.00626 41.9792 7.4271 41.9792C7.68543 41.9792 7.94376 41.99 8.2021 42.0115C8.46043 42.033 8.80488 42.0868 9.23543 42.173L20.6021 30.8063C20.516 30.3757 20.4622 30.0528 20.4406 29.8375C20.4191 29.6223 20.4083 29.3424 20.4083 28.998C20.4083 27.491 20.9465 26.2209 22.0229 25.1875C23.0993 24.1542 24.3695 23.6375 25.8333 23.6375C27.3403 23.6375 28.6212 24.165 29.6761 25.2198C30.7309 26.2747 31.2583 27.5556 31.2583 29.0625C31.2583 29.2778 31.1722 29.8375 31 30.7417L37.0708 36.748C37.4583 36.7049 37.7813 36.6618 38.0396 36.6188C38.2979 36.5757 38.5347 36.5542 38.75 36.5542C38.9653 36.5542 39.2129 36.5757 39.4927 36.6188C39.7726 36.6618 40.1278 36.7264 40.5583 36.8125L49.3417 27.9646C49.2556 27.5771 49.2018 27.2542 49.1802 26.9959C49.1587 26.7375 49.1479 26.4577 49.1479 26.1563C49.1479 24.6493 49.6861 23.3792 50.7625 22.3459C51.8389 21.3125 53.1306 20.7959 54.6375 20.7959C56.1014 20.7959 57.35 21.3125 58.3834 22.3459C59.4167 23.3792 59.9333 24.6709 59.9333 26.2209C59.9333 27.6848 59.4167 28.9549 58.3834 30.0313C57.35 31.1077 56.1014 31.6459 54.6375 31.6459C54.3361 31.6459 54.0563 31.6351 53.7979 31.6136C53.5396 31.5921 53.1952 31.5382 52.7646 31.4521L43.9813 40.2355C44.0674 40.666 44.1212 41.0105 44.1427 41.2688C44.1642 41.5271 44.175 41.7855 44.175 42.0438C44.175 43.5077 43.6583 44.7671 42.625 45.8219C41.5917 46.8768 40.3215 47.4042 38.8146 47.4042C37.3077 47.4042 36.016 46.8768 34.9396 45.8219C33.8632 44.7671 33.325 43.5077 33.325 42.0438C33.325 41.6993 33.3465 41.4195 33.3896 41.2042L33.5833 40.2355L27.5771 34.2292C27.1465 34.3153 26.8129 34.3799 26.5761 34.423C26.3393 34.466 26.0917 34.4875 25.8333 34.4875C25.575 34.4875 24.9938 34.4014 24.0896 34.2292L12.6583 45.725C12.7445 46.1125 12.7983 46.4247 12.8198 46.6615C12.8413 46.8983 12.8521 47.1674 12.8521 47.4688C12.8521 48.8896 12.3247 50.1382 11.2698 51.2146C10.2149 52.291 8.93404 52.8292 7.4271 52.8292ZM10.3333 24.6709L8.71876 21.248L5.29585 19.6334L8.71876 18.0188L10.3333 14.5313L11.9479 18.0188L15.4354 19.6334L11.9479 21.248L10.3333 24.6709ZM38.75 21.8938L36.3604 16.598L31.0646 14.2084L36.3604 11.7542L38.75 6.45837L41.2042 11.7542L46.5 14.2084L41.2042 16.598L38.75 21.8938Z" fill="#45A7C4"/>
</svg>
