<svg width="68" height="68" viewBox="0 0 68 68" fill="none" xmlns="http://www.w3.org/2000/svg">
<g clip-path="url(#clip0_25_11)">
<path d="M-0.566681 51.5666V47.2458C-0.566681 45.168 0.472208 43.527 2.54999 42.3229C4.62776 41.1187 7.31943 40.5166 10.625 40.5166H12.75C12.325 41.4138 11.9944 42.3465 11.7583 43.3145C11.5222 44.2826 11.4042 45.3097 11.4042 46.3958V51.5666H-0.566681ZM16.4333 51.5666V46.3958C16.4333 43.0902 18.0507 40.4576 21.2854 38.4979C24.5201 36.5382 28.7583 35.5583 34 35.5583C39.2889 35.5583 43.5389 36.5382 46.75 38.4979C49.9611 40.4576 51.5667 43.0902 51.5667 46.3958V51.5666H16.4333ZM56.5958 51.5666V46.3958C56.5958 45.3569 56.4896 44.3534 56.2771 43.3854C56.0646 42.4173 55.7458 41.4611 55.3208 40.5166H57.375C60.775 40.5166 63.4903 41.1187 65.5208 42.3229C67.5514 43.527 68.5667 45.168 68.5667 47.2458V51.5666H56.5958ZM10.625 38.5333C9.1611 38.5333 7.90971 38.002 6.87082 36.9395C5.83193 35.877 5.31249 34.6138 5.31249 33.15C5.31249 31.6861 5.83193 30.4347 6.87082 29.3958C7.90971 28.3569 9.1611 27.8375 10.625 27.8375C12.0889 27.8375 13.3403 28.3569 14.3791 29.3958C15.418 30.4347 15.9375 31.7097 15.9375 33.2208C15.9375 34.6375 15.418 35.877 14.3791 36.9395C13.3403 38.002 12.0889 38.5333 10.625 38.5333ZM57.375 38.5333C55.9111 38.5333 54.6597 38.002 53.6208 36.9395C52.5819 35.877 52.0625 34.6138 52.0625 33.15C52.0625 31.6861 52.5819 30.4347 53.6208 29.3958C54.6597 28.3569 55.9111 27.8375 57.375 27.8375C58.8389 27.8375 60.0903 28.3569 61.1292 29.3958C62.168 30.4347 62.6875 31.7097 62.6875 33.2208C62.6875 34.6375 62.168 35.877 61.1292 36.9395C60.0903 38.002 58.8389 38.5333 57.375 38.5333ZM34.0708 33.4333C31.5208 33.4333 29.3604 32.5479 27.5896 30.777C25.8187 29.0062 24.9333 26.8458 24.9333 24.2958C24.9333 21.793 25.8187 19.6562 27.5896 17.8854C29.3604 16.1145 31.5208 15.2291 34.0708 15.2291C36.5736 15.2291 38.6986 16.1027 40.4458 17.85C42.193 19.5972 43.0666 21.7458 43.0666 24.2958C43.0666 26.8458 42.193 29.0062 40.4458 30.777C38.6986 32.5479 36.5736 33.4333 34.0708 33.4333Z" fill="#45A7C4"/>
</g>
<defs>
<clipPath id="clip0_25_11">
<rect width="68" height="68" fill="white"/>
</clipPath>
</defs>
</svg>
