<svg width="64" height="65" viewBox="0 0 64 65" fill="none" xmlns="http://www.w3.org/2000/svg">
<path d="M57.6729 29.7375L55.9292 25.8625L52.0542 24.0542L55.9292 22.3105L57.6729 18.4355L59.4812 22.3105L63.3562 24.0542L59.4812 25.8625L57.6729 29.7375ZM49.4708 17.6605L46.8229 11.9125L41.0104 9.20004L46.8229 6.48754L49.4708 0.739624L52.1833 6.48754L57.9958 9.20004L52.2479 11.9125L49.4708 17.6605ZM22.4104 61.7709C20.8604 61.7709 19.5365 61.1896 18.4385 60.0271C17.3406 58.8646 16.7917 57.4653 16.7917 55.8292H28.0292C28.0722 57.4653 27.534 58.8646 26.4146 60.0271C25.2951 61.1896 23.9604 61.7709 22.4104 61.7709ZM11.5604 51.7605V47.2396H33.2604V51.7605H11.5604ZM11.8833 43.2355C8.82639 41.2549 6.38299 38.7684 4.55312 35.7761C2.72326 32.7837 1.80833 29.4146 1.80833 25.6688C1.80833 20.1146 3.84271 15.2924 7.91146 11.2021C11.9802 7.11185 16.8132 5.06671 22.4104 5.06671C28.0076 5.06671 32.8406 7.11185 36.9094 11.2021C40.9781 15.2924 43.0125 20.1146 43.0125 25.6688C43.0125 29.3716 42.1191 32.7299 40.3323 35.7438C38.5455 38.7577 36.0806 41.2549 32.9375 43.2355H11.8833ZM13.8208 37.875H31.1292C33.0667 36.4973 34.6382 34.7427 35.8438 32.6115C37.0493 30.4802 37.6521 28.166 37.6521 25.6688C37.6521 21.5355 36.1451 17.9726 33.1313 14.9802C30.1174 11.9879 26.5438 10.4917 22.4104 10.4917C18.234 10.4917 14.6604 11.9771 11.6896 14.948C8.71875 17.9188 7.23333 21.4924 7.23333 25.6688C7.23333 28.166 7.82535 30.4802 9.00937 32.6115C10.1934 34.7427 11.7972 36.4973 13.8208 37.875Z" fill="#45A7C4"/>
</svg>
