<svg width="80" height="36" viewBox="0 0 80 36" fill="none" xmlns="http://www.w3.org/2000/svg">
<g clip-path="url(#clip0_8_245)">
<path d="M79.62 0.47C79.78 0.47 79.61 0.08 79.61 0C79.39 0.16 79.66 0.58 79.62 0.47Z" fill="#CE5374"/>
<path d="M77.46 2.10999L77.45 1.92999L77.21 2.43999L77.46 2.10999Z" fill="#CE5374"/>
<path d="M75.18 2.78003C75.6 3.40003 75.97 2.42003 76.45 2.55003L76.56 2.69003L76.58 2.09003C76.11 2.32003 75.58 2.88003 75.18 2.79003V2.78003Z" fill="#CE5374"/>
<path d="M73.52 1.67C73.67 1.91 73.33 1.98 73.83 1.67C73.79 1.65 73.78 1.63 73.76 1.62C73.71 1.64 73.64 1.66 73.52 1.67Z" fill="#CE5374"/>
<path d="M73.76 1.61003C73.99 1.52003 73.54 1.43003 73.76 1.61003V1.61003Z" fill="#CE5374"/>
<path d="M72.7 2.09998L72.95 1.76998C72.84 1.62998 72.55 1.67998 72.62 1.53998C72.33 1.76998 72.45 1.89998 72.71 2.10998L72.7 2.09998Z" fill="#CE5374"/>
<path d="M72.55 2.69002L72.68 2.54002C72.63 2.48002 72.58 2.47002 72.55 2.69002Z" fill="#CE5374"/>
<path d="M72.96 2.21997L72.68 2.53997C72.76 2.63997 72.83 2.85997 72.82 2.41997C72.85 2.62997 72.86 2.41997 72.97 2.22997L72.96 2.21997Z" fill="#CE5374"/>
<path d="M73.19 2.26999C73.41 2.36999 73.67 2.38999 73.42 2.71999C74 2.44999 73.76 1.98999 73.19 2.26999Z" fill="#CE5374"/>
<path d="M75.27 3.53L75.57 3.66L75.71 3.37C75.64 3.51 75.2 3.32 75.28 3.53H75.27Z" fill="#CE5374"/>
<path d="M70.62 2.33002C70.64 2.48002 70.84 2.69002 70.92 2.87002L71.1 2.63002C70.95 2.57002 70.7 2.54002 70.62 2.33002Z" fill="#CE5374"/>
<path d="M70.92 2.87L70.65 3.22C70.97 3.16 70.99 3.02 70.92 2.87Z" fill="#CE5374"/>
<path d="M72.72 3.46002L73.13 2.77002L72.61 3.50002L72.72 3.46002Z" fill="#CE5374"/>
<path d="M69.28 2.71L69.38 2.31L69.18 2.93L69.28 2.71Z" fill="#CE5374"/>
<path d="M68.41 3.03002C68.47 2.71002 68.07 2.62002 68.17 2.40002C67.94 2.52002 67.81 2.82002 67.69 3.09002C67.85 2.91002 68.07 2.88002 68.41 3.03002Z" fill="#CE5374"/>
<path d="M67.48 3.50003C67.56 3.40003 67.62 3.25003 67.7 3.09003C67.61 3.19003 67.54 3.31003 67.48 3.50003Z" fill="#CE5374"/>
<path d="M70.03 3.31999C69.98 3.23999 69.86 3.02999 69.63 2.98999L69.89 3.35999C69.89 3.35999 69.98 3.33999 70.03 3.32999V3.31999Z" fill="#CE5374"/>
<path d="M69.9 3.37C69.75 3.39 69.64 3.41 69.6 3.42C69.64 3.42 69.73 3.4 69.91 3.37H69.9Z" fill="#CE5374"/>
<path d="M70.07 3.32001H70.03C70.03 3.32001 70.07 3.38001 70.07 3.32001Z" fill="#CE5374"/>
<path d="M71.69 3.35999C71.55 3.64999 71.2 4.01999 71.72 4.24999C71.78 3.92999 71.49 3.79999 71.69 3.35999Z" fill="#CE5374"/>
<path d="M70.39 3.78L70.79 3.76C70.75 3.65 70.64 3.52 70.7 3.37L70.39 3.77V3.78Z" fill="#CE5374"/>
<path d="M70.25 3.96003L70.39 3.78003H70.24L70.25 3.96003Z" fill="#CE5374"/>
<path d="M68.23 3.69997C68.12 3.92997 67.95 3.98997 67.76 4.07997C68 4.09997 68.23 4.07997 68.44 4.00997C68.44 3.86997 68.45 3.60997 68.23 3.69997Z" fill="#CE5374"/>
<path d="M69.05 3.57001L69.02 3.60001C69.02 3.60001 69.07 3.63001 69.05 3.57001Z" fill="#CE5374"/>
<path d="M65.81 4.66002L65.87 4.72002L65.85 4.65002L65.81 4.66002Z" fill="#CE5374"/>
<path d="M68.5 4.07001C68.68 4.10001 68.75 3.97001 68.8 3.82001C68.69 3.90001 68.57 3.96001 68.44 4.00001C68.44 4.06001 68.45 4.10001 68.5 4.07001Z" fill="#CE5374"/>
<path d="M66.99 3.86003C67.1 3.92003 67.21 3.97003 67.33 4.00003C67.21 3.89003 66.98 3.74003 66.99 3.86003Z" fill="#CE5374"/>
<path d="M68.94 3.51002L68.96 3.48002C68.88 3.41002 68.9 3.45002 68.94 3.51002Z" fill="#CE5374"/>
<path d="M68.94 3.51C68.88 3.59 68.84 3.71 68.8 3.82C68.89 3.76 68.96 3.69 69.02 3.6C68.99 3.58 68.96 3.54 68.93 3.5L68.94 3.51Z" fill="#CE5374"/>
<path d="M66.01 7.45998C65.92 7.06998 66.24 6.59998 66.72 6.89998C66.99 6.50998 66.39 5.32998 65.87 4.72998C65.91 4.89998 65.95 5.04998 65.65 5.38998C65.84 5.55998 66.61 5.62998 66.4 6.06998C65.97 6.40998 65.96 6.04998 65.67 5.91998C66.01 6.32998 65.26 6.78998 65.57 7.45998L65.92 7.08998C65.96 7.19998 65.86 7.40998 66.01 7.47998V7.45998Z" fill="#CE5374"/>
<path d="M66.58 4.54998L66.72 4.45998C66.53 4.44998 66.36 4.32998 66.04 4.09998C65.84 4.35998 65.83 4.51998 65.85 4.64998L66.61 4.47998L66.58 4.54998Z" fill="#CE5374"/>
<path d="M67.39 4.24999C67.39 4.69999 67.09 4.97999 67.44 5.35999C67.87 5.19999 67.65 4.91999 67.86 4.65999C67.18 4.97999 68 4.36999 67.41 4.28999C67.53 4.17999 67.65 4.11999 67.76 4.06999C67.62 4.05999 67.47 4.02999 67.33 3.98999L67.35 4.00999C67.4 4.04999 67.42 4.07999 67.37 4.05999L67.36 4.06999C67.37 4.12999 67.37 4.17999 67.37 4.23999C67.14 4.21999 67.31 4.13999 67.36 4.06999V4.00999H67.35L66.7 4.44999C66.87 4.45999 67.05 4.38999 67.38 4.24999H67.39Z" fill="#CE5374"/>
<path d="M71.6 5.24997C71.6 5.24997 71.56 5.18997 71.55 5.15997C71.52 5.21997 71.51 5.25997 71.6 5.24997Z" fill="#CE5374"/>
<path d="M71.23 5.09C71.26 5.02 71.26 4.84 71.44 4.83C71.62 4.91 71.5 5.03 71.55 5.16C71.62 5.02 71.82 4.76 71.44 4.65L71.41 4.72C71.08 4.66 70.56 4.26 70.59 4.19C70.78 4.54 70.94 4.78 71.24 5.09H71.23Z" fill="#CE5374"/>
<path d="M69.32 4.78998L68.78 5.16998L69.19 5.43998L69.11 5.22998C69.47 5.20998 69.32 4.96998 69.31 4.78998H69.32Z" fill="#CE5374"/>
<path d="M65.68 4.47001L65.63 4.01001L65.47 4.73001L65.68 4.47001Z" fill="#CE5374"/>
<path d="M64.92 4.75L64.84 4.37L64.7 4.66L64.92 4.75Z" fill="#CE5374"/>
<path d="M26.95 21.98L26.85 22.19C26.91 22.1 26.94 22.04 26.95 21.98Z" fill="#CE5374"/>
<path d="M28.08 21.13L27.99 20.96C28.01 21.08 28.04 21.16 28.08 21.13Z" fill="#CE5374"/>
<path d="M48.19 6.40003C48.17 5.93003 48.16 5.24003 47.95 5.63003L47.8 6.05003C48.04 6.11003 48.13 6.24003 48.19 6.40003Z" fill="#CE5374"/>
<path d="M34.91 12.3C34.91 12.3 35 12.34 35.05 12.35C35.01 12.19 34.97 12.05 34.93 11.91C34.93 12.03 34.92 12.16 34.91 12.29V12.3Z" fill="#CE5374"/>
<path d="M35.89 13.82H35.45C35.57 13.85 35.72 13.85 35.89 13.82Z" fill="#CE5374"/>
<path d="M17.08 22.02L16.56 22.11C16.87 22.44 16.9 22.14 17.08 22.02Z" fill="#CE5374"/>
<path d="M57.06 7.25998C56.8 7.15998 56.62 7.13998 56.46 7.15998C56.78 7.32998 57.09 7.62998 57.06 7.25998Z" fill="#CE5374"/>
<path d="M24.6 17.98C24.56 18.11 24.58 18.21 24.64 18.28C24.68 18.15 24.68 18.05 24.6 17.98Z" fill="#CE5374"/>
<path d="M55.87 7.32001C55.87 7.32001 55.96 7.36001 56 7.39001C56.13 7.28001 56.27 7.18001 56.46 7.16001C56.23 7.03001 55.99 6.98001 55.86 7.32001H55.87Z" fill="#CE5374"/>
<path d="M7.9 27.58C7.9 27.58 7.86 27.61 7.83 27.62C7.88 27.65 7.89 27.62 7.9 27.58Z" fill="#CE5374"/>
<path d="M1.22 33.3C1.22 33.22 1.26 33.1 1.29 32.99C1.24 33.03 1.22 33.13 1.22 33.3Z" fill="#CE5374"/>
<path d="M61.75 5.50001C61.91 5.42001 61.76 5.45001 61.75 5.50001V5.50001Z" fill="#CE5374"/>
<path d="M63.04 6.90997C63.02 6.96997 63.01 7.02997 63.04 7.12997C63.02 7.02997 63.03 6.95997 63.04 6.90997Z" fill="#CE5374"/>
<path d="M54.87 10.31H54.86C54.93 10.39 54.91 10.37 54.87 10.31Z" fill="#CE5374"/>
<path d="M62.06 5.62C61.98 5.59 61.9 5.57 61.81 5.56C61.85 5.58 61.93 5.6 62.06 5.62Z" fill="#CE5374"/>
<path d="M61.97 5.43003C62.03 5.43003 62.08 5.43003 62.13 5.43003C62.13 5.35003 62.1 5.32003 61.97 5.43003Z" fill="#CE5374"/>
<path d="M61.53 5.59C61.62 5.56 61.72 5.55 61.81 5.55C61.77 5.53 61.75 5.51 61.75 5.5C61.7 5.52 61.64 5.55 61.53 5.59Z" fill="#CE5374"/>
<path d="M11.87 15.48C11.87 15.48 11.85 15.47 11.84 15.45C11.88 15.77 11.89 15.69 11.87 15.48Z" fill="#CE5374"/>
<path d="M43.16 9.4V9.38H43.14L43.15 9.4H43.16Z" fill="#CE5374"/>
<path d="M42.87 9.84998C42.85 9.27998 43 9.29998 43.15 9.36998C42.99 8.97998 42.81 8.59998 42.62 8.22998C42.68 8.77998 42.76 9.31998 42.87 9.84998Z" fill="#CE5374"/>
<path d="M23.1 23.94C23.35 24.03 23.62 24.1 23.89 24.16C23.15 25.03 22.31 24.85 23.18 25.31C23.16 24.63 23.9 24.48 24.6 24.16C25.26 23.87 25.72 23.56 25.43 22.95L25.89 23.01C25.79 23.05 25.82 23.13 25.72 23.17C26.68 23.35 25.68 22.06 26.45 21.77C26.74 21.69 27.01 21.73 26.95 21.98C27.05 21.77 27.15 21.55 27.23 21.35C27.38 21.27 27.49 21.48 27.34 21.56L27.97 20.93L27.99 20.97C27.96 20.73 27.97 20.29 27.99 20.1C28.28 20.11 27.99 20.28 28.15 20.38L28.31 19.82C28.69 19.97 28.59 20.48 28.31 20.66C29.51 21.42 28.41 20.14 29.66 20.13L29.42 20.56C30.14 20.96 30.23 20.52 30.94 20.55C30.68 20.44 29.37 20.29 29.55 19.7C29.73 19.68 29.91 19.6 29.95 19.21C30.27 19.58 30.4 19.31 30.64 19.06L31.04 19.56C31.2 19.18 30.96 18.95 30.94 18.59C31.29 18.37 31.68 18.69 32.03 18.94C32.59 18.59 31.17 18.64 31.67 18.04C32.24 17.87 32.35 17.42 32.58 16.71C33.01 16.63 32.79 17.05 33.01 17.1L32.92 16.5C32.99 16.46 33.07 16.59 33.11 16.66C33.19 16.33 32.71 16.16 32.92 15.74C32.55 15.13 34.27 15.93 34.16 14.97C34.38 15.02 34.37 15.31 34.56 15.47C34.78 14.59 34.79 14.78 34.8 13.84H35.46C34.86 13.7 34.87 12.96 34.92 12.33C34.67 12.24 34.45 12.15 34.33 12.13L34.66 11.42C34.79 11.45 34.87 11.67 34.95 11.94C34.95 11.87 34.95 11.8 34.95 11.74C35.29 11.77 35.42 12.14 35.5 12.53C35.36 12.48 35.21 12.43 35.06 12.38C35.17 12.79 35.32 13.22 35.58 13.49C35.57 13.41 35.59 13.3 35.64 13.22C35.67 13.33 35.71 13.42 35.77 13.46C35.83 13.5 35.8 13.34 35.77 13.15L36.33 13.61L36.18 13.37L37.14 13.19C37.19 12.25 37 11.06 37.68 10.24C37.77 10.81 38.12 10.97 38.46 11.49C37.86 11.1 37.99 12.15 37.51 12.34C37.76 12.24 37.89 12.51 37.9 12.63C38.02 12.29 38.15 11.95 38.29 11.62C38.56 12.05 38.66 11.82 38.97 11.86C38.26 11.13 39.15 10.93 39.3 10.48C39.5 10.75 39.61 11.09 39.19 11.26C40 11.64 39.09 9.90998 39.85 10.21C39.76 10.27 39.68 10.26 39.73 10.43C39.8 10.05 40.46 9.92998 40.48 10.26L40.39 10.32C41.07 10.04 42.29 9.30998 42.04 8.50998C42.09 8.60998 42.37 9.48998 42.4 9.65998C42.35 8.63998 42.38 7.59998 42.67 6.53998C42.69 6.90998 42.93 7.48998 43.07 8.04998C43.21 8.60998 43.29 9.13998 43.15 9.38998C43.3 9.45998 43.45 9.53998 43.58 9.25998C43.53 9.15998 43.23 8.24998 43.35 8.15998C43.58 8.53998 43.63 8.64998 43.69 8.73998C43.75 8.82998 43.83 8.90998 43.95 9.25998C43.88 9.11998 43.98 8.29998 44.19 8.07998C44.23 8.03998 44.27 8.01998 44.31 8.02998C44.25 8.18998 44.14 9.14998 44.07 9.25998C44.24 8.90998 44.48 8.56998 44.78 8.27998C44.58 8.42998 44.48 9.18998 44.42 9.49998C44.44 9.26998 44.71 9.64998 44.9 9.63998L44.83 9.30998C45.25 9.73998 46.24 8.30998 46.87 8.81998C46.66 8.94998 45.84 9.83998 46.09 10.2C46.58 9.83998 48.44 8.48998 49.13 8.36998L49.07 8.70998C49.27 8.66998 49.46 8.61998 49.64 8.56998C49.35 8.89998 48.8 9.40998 48.15 9.77998C47.5 10.16 46.79 10.44 46.35 10.57C46.48 10.98 46.19 10.94 46.66 11.22C46.66 11.59 46.14 11.44 46.01 11.37C46.31 11.66 46.66 11.97 47.08 12.28C47.35 11.67 48.4 12.18 48.56 11.61C48.03 11.65 47.45 11.62 46.89 11.55C47.04 11.25 47.47 10.96 47.93 10.77C48.4 10.58 48.87 10.5 49.24 10.69C49.36 11.02 48.68 11.76 48.61 11.97C48.82 11.82 49.61 11.83 49.65 12.01L49.16 12.25C49.65 12.66 50.2 11.61 50.69 12.33C50.88 12.4 51.25 13.27 51.33 12.87C51.02 12.07 51.27 9.70998 51.48 9.14998C51.51 9.20998 52.25 9.92998 52.47 10.29C52.79 10.89 52.03 11.73 52.29 12.24C52.3 12.06 52.48 11.83 52.55 11.75C52.76 11.9 52.48 12.33 52.93 12.22C52.97 11.54 53.84 12.22 53.11 11.63C53.52 11.41 53.57 11.73 54.07 11.65C53.87 11.23 54.3 10.11 54.63 9.84998C54.63 10.02 54.76 10.23 54.82 10.32C55.62 10.23 56.12 10.43 56.86 10.24C56.97 10.38 57.38 10.48 57.3 10.8C57.38 10.66 57.41 10.4 57.63 10.33C58.23 10.77 57.15 10.56 57.67 11.15C57.59 10.76 58.11 10.46 58.36 10.13C58.09 9.56998 57.59 10.23 57.33 10.56C57.11 9.73998 57.42 8.73998 58.04 8.14998C58.58 7.76998 58.45 8.59998 58.52 8.44998C59.68 8.25998 59.05 6.74998 60.16 7.05998C60.68 7.45998 60.48 8.07998 60.68 8.42998C60.25 8.76998 59.84 8.32998 59.51 8.43998L59.99 8.55998C59.89 8.77998 59.6 8.99998 59.38 8.90998C59.83 9.27998 61.3 8.42998 62.29 8.59998C62.39 8.37998 62.6 8.11998 62.42 7.94998L62.17 8.09998C61.79 7.75998 62.51 7.36998 62.11 7.27998C62.39 6.87998 62.66 6.29998 63.25 6.37998L63.52 6.93998C63.46 6.76998 63.08 6.68998 62.99 6.90998C63.13 6.58998 64.02 7.46998 64.03 6.62998L63.55 6.32998C63.83 5.91998 64.1 5.16998 64.61 5.20998C64.23 4.68998 64.52 5.30998 64 4.72998C64.53 5.48998 62.82 5.03998 63.54 5.79998C62.97 5.10998 62.86 5.63998 62.23 5.09998C62.3 5.28998 62.5 5.41998 62.08 5.43998C62.08 5.49998 62.06 5.58998 62.05 5.63998C62.04 5.63998 62.03 5.63998 62.02 5.63998L62.05 5.65998C62.05 5.65998 62.05 5.69998 62.06 5.65998C62.18 5.71998 62.28 5.79998 62.34 5.89998C62.28 6.39998 61.67 6.56998 61.53 6.85998C61.27 6.83998 61.56 6.60998 61.37 6.43998L61.16 6.87998C61 6.45998 60.34 6.34998 60.8 5.92998L60.31 6.05998C59.95 5.89998 59.53 5.91998 59.35 6.17998C59.09 6.14998 58.92 6.82998 59.01 6.42998L58.33 6.91998L58.29 6.80998C57.52 6.97998 56.97 7.97998 55.95 7.40998C55.74 7.57998 55.53 7.77998 55.11 7.73998L54.95 7.37998C54.68 7.57998 54.02 7.16998 53.97 7.58998C53.51 6.61998 52.64 7.52998 52.21 7.32998L52.19 7.83998C51.89 7.80998 51.61 7.93998 51.22 8.08998L51.18 8.53998C50.77 8.84998 50.4 8.07998 49.99 7.93998C50.09 7.78998 50.17 7.86998 50.22 7.99998C50.13 7.42998 49.86 7.50998 49.49 7.54998C49.13 7.59998 48.67 7.58998 48.6 7.07998C48.36 7.10998 48.28 6.97998 48.24 6.81998C48.25 6.81998 48.27 6.82998 48.29 6.81998C48.28 6.79998 48.26 6.78998 48.23 6.76998C48.2 6.65998 48.18 6.52998 48.14 6.40998C48.14 6.54998 48.16 6.66998 48.19 6.73998C48.06 6.65998 47.83 6.56998 47.57 6.51998L47.75 6.05998C47.75 6.05998 47.71 6.03998 47.69 6.03998C47.57 5.74998 47.4 6.11998 47.31 6.49998C47.16 6.49998 47 6.50998 46.87 6.56998C47.08 5.77998 46.15 6.45998 46.2 5.57998C45.89 5.77998 44.89 5.44998 44.44 5.93998C44.36 6.01998 44.3 6.11998 44.27 6.23998C44.27 6.12998 44.19 6.06998 44.35 6.07998C44.05 5.94998 43.71 5.84998 43.44 6.10998C43.38 5.90998 43.32 5.70998 43.25 5.50998C43.02 5.80998 42.83 6.11998 42.69 6.43998C42.24 6.15998 41.98 6.01998 42.28 5.44998C41.87 5.92998 41.74 6.05998 41.6 6.17998C41.47 6.29998 41.34 6.41998 41.16 6.88998L41.03 6.50998C40.79 6.62998 40.67 7.27998 40.4 7.04998C39.56 6.61998 37.99 8.22998 36.47 8.44998C37.35 9.25998 35.64 8.38998 36.11 9.15998C35.88 8.97998 35.63 8.96998 35.68 8.63998C35.26 9.27998 34.55 8.91998 34.62 9.82998C34.39 9.65998 34.49 9.41998 34.34 9.32998C34.34 9.40998 34.31 9.65998 34.15 9.56998C33.99 9.47998 34.09 9.31998 34.11 9.15998C33.56 9.64998 34.03 10.36 34.48 11.01C33.96 10.93 33.86 11.09 33.99 11.66C33.73 11.54 33.4 11.46 33.68 11.11C33.46 11.23 32.27 11.78 32.66 12.28C32.5 12.21 32.37 12.46 32.37 12.56C31.93 12.89 31.86 12.88 31.49 13.27L31.67 13.25C32.01 13.97 31.45 13.67 31.18 14.02L31.14 13.95C30.03 14.18 30.99 14.43 29.85 14.59L30.21 14.92C30.82 15.76 29.16 15.03 29 15.69L29.33 15.76C29.33 16.23 27.76 15.26 27.45 15.36C27.34 15.34 27.44 15.18 27.46 15.07C26.46 15.13 27.79 15.61 27.44 16.11C27.14 15.92 26.99 15.37 26.64 15.57C26.32 15.48 26.47 17.15 25.64 16.99C25.9 17.12 26.15 17.24 26.07 17.57C25.8 17.92 24.58 17.49 24.79 18.37C24.7 18.35 24.65 18.3 24.61 18.25C24.5 18.61 24.06 19.09 24.15 19.56C23.59 18.94 23.37 19.31 23.14 19.65C22.93 19.99 22.7 20.28 22.55 19.53C22.39 19.6 22.22 19.65 22.04 19.67L22.06 19.51C21.96 19.48 21.88 19.48 21.81 19.52C21.65 19.59 21.51 19.81 21.33 20.02C21.28 19.88 21.39 19.78 21.42 19.7C21.22 19.45 21.16 19.33 21.01 19.32C20.87 19.3 20.66 19.42 20.15 19.46L20.45 19.06C20.1 19.14 20.31 17.77 19.31 17.38C19.36 17.35 19.45 17.31 19.55 17.33C18.45 16.83 19.18 14.54 17.46 15.26C17.15 15.09 16.85 14.95 16.57 14.82C16.87 15.34 16.69 15.42 16.47 15.48C16.24 15.53 15.98 15.57 15.98 15.83C15.71 15.65 15.74 14.61 16.1 14.92V15.06C16.82 14.47 15.46 13.67 15.8 13.06C15.42 12.58 15.03 12.15 14.65 11.76C14.27 11.38 13.93 11.03 13.48 10.78C13.04 10.52 12.41 10.44 11.9 10.57C11.39 10.69 10.97 10.94 10.6 11.26L11.01 11.87C10.85 12.01 10.71 12.15 10.56 12.31C10.39 12.27 10.14 11.89 10.5 11.56C10.13 11.28 10.12 12.61 10.21 12.78C9.87 13.06 9.79 12.78 9.8 12.44C9.81 12.1 9.92 11.69 9.82 11.83L9.58 12.28H9.69C9.64 12.88 9.82 13.2 9.46 13.7C9.14 13.91 9.04 13.5 8.94 13.63C8.9 13.58 8.86 13.63 8.8 13.87L8.27 14.83C8.49 14.82 8.7 14.82 8.91 14.83C8.94 15.43 8.48 15.65 9.21 15.65C8.94 15.63 8.68 15.82 8.44 16.13C8.38 16.21 8.32 16.29 8.27 16.38L8.14 16.58C8.06 16.72 7.98 16.86 7.91 17.01C7.63 17.6 7.46 18.21 7.25 18.29C7.45 18.87 7.27 19.28 7 19.76C7.17 19.68 7.79 19.87 7.53 20.27C6.37 19.58 6.65 20.84 5.62 20.81C6.34 20.74 5.24 22.12 6.29 21.97C6.04 22.29 5.82 21.8 5.41 21.96C5.53 23.03 4.31 23.76 4.04 24.92C4.2 25 4.52 24.92 4.67 25.25L3.63 25.51C3.63 25.76 4.5 26.07 3.78 26.25C3.94 26.25 4.18 26.25 4.18 26.41C2.56 28.26 3.23 31.02 0.970001 32.71C1.39 32.52 1.36 32.73 1.3 32.96C1.43 32.84 1.71 33.1 1.95 33.15L1.02 33.87C1.59 34.24 0.750001 34.88 1.32 35.17L1.3 34.84C1.89 35.45 3.05 34.8 3.95 35.15C3.28 34.46 5.51 34.41 4.59 33.33C4.83 33.24 4.84 33.56 5.08 33.55C4.75 33.24 4.74 33 5.05 32.66L5.13 32.74C5.42 31.6 5.96 31.25 6.66 30.11L6.18 30.04C6.34 29.79 6.5 29.79 6.65 29.71C6.09 29.16 6.34 30.44 5.7 29.9C6.73 29.87 6.4 28.02 7.52 28.17C7.68 27.77 6.96 28.1 7.12 27.69H7.44L7.12 27.45C7.28 27.21 7.68 27.2 7.92 27.28C7.87 27.33 7.92 27.49 7.91 27.57C8.37 27.35 8.17 26.56 8.33 26.48L8.01 26.8C8.18 25.59 9.08 24.4 8.97 23.11H8.73C8.69 22.13 9.23 22.55 9.43 21.59L9.47 21.64C9.34 21.37 9.34 21.09 9.47 20.86C9.61 21.19 10.12 20.64 10.26 21.05C10.24 20 10.13 20.48 9.62 19.57L10.02 19.59C9.8 19.26 9.65 19.17 9.76 18.69C9.89 19.18 10.4 18.64 10.6 19.22C11.17 18.93 11.15 18.5 11.13 18.16C11.13 17.99 11.13 17.82 11.19 17.74C11.25 17.68 11.38 17.67 11.66 17.78C11.27 17.4 11.1 17.42 10.99 17.56C10.9 17.66 10.8 18.01 10.77 17.82C10.38 17.87 10.24 17.15 10.43 16.97C10.58 16.7 11.7 17.36 11.83 17.04C11.81 17.07 11.86 17.14 11.84 17.17C12.08 17.28 11.73 16.57 12.09 16.82C11.76 16.06 12.21 16.65 11.78 15.71L11.68 16.34C11.67 16.12 11.56 15.7 11.53 15.3C11.5 14.91 11.54 14.52 11.8 14.59C11.85 14.84 11.87 15.25 11.89 15.48C12.06 15.67 11.95 15.04 12.13 15.25C12.29 15.82 12.24 15.97 12.18 16.13C12.12 16.28 12.04 16.44 12.18 16.86C12.4 17.17 12.04 15.83 12.45 16.96C12.19 16.23 12.27 16.16 12.36 16.17C12.46 16.17 12.54 16.24 12.51 15.51L12.65 16.24C12.65 16.1 12.65 15.7 12.73 15.68C12.73 16.02 12.76 16.37 12.79 16.7C12.77 16.25 12.9 16.38 12.99 16.6C13.09 16.82 13.14 17.11 13.2 16.91C13.08 16.87 13.04 16.66 13.03 16.36C13.01 16.06 13.03 15.68 12.92 15.41C13.2 14.9 13.3 15.52 13.32 16.1C13.36 16.71 13.32 17.34 13.44 17.31C13.41 17.38 13.38 16.76 13.48 16.52C13.52 16.73 13.54 17.07 13.48 17.41C13.66 17.48 13.61 16.77 13.78 16.51C13.65 17.3 13.96 16.36 14.18 16.35L13.96 16.86C14.05 17.49 14.55 15.97 14.65 16.73C14.47 16.86 14.3 17 14.14 17.16C14.21 17.16 14.29 17.16 14.37 17.17L14 17.59C14.36 17.39 14.36 17.57 14.34 17.8C14.47 17.68 14.63 17.54 14.81 17.48C15 17.44 15.2 17.48 15.33 17.63C15.27 18.03 14.87 17.78 15.28 18.21C14.96 18.28 14.57 18.4 14.77 17.92C14.63 17.99 14.45 18 14.31 18.07C14.23 18.51 14.71 18.73 14.85 18.9C14.81 18.82 14.78 18.73 14.8 18.65L15.85 18.93C15.79 19.15 15.61 19.15 15.43 19.15C15.58 19.26 15.83 19.22 16.01 19.4C15.66 19.58 15.34 19.84 14.98 19.66L15.82 20.05C15.71 20.19 15.71 20.68 15.53 20.68C15.65 21.22 16.88 21.2 17.2 21.97C17.28 21.95 17.39 21.96 17.55 22.04C17.96 22.57 18.52 23.66 19.77 23.62C19.88 23.91 20 24.22 20.16 24.51C20.64 24.57 20.46 24.29 20.39 24.02C20.31 23.74 20.34 23.52 21.02 23.55C21.07 23.55 21.12 23.55 21.16 23.55C21.92 23.54 21.31 24.22 21.64 24.43C21.92 24.27 22.28 24.01 22.66 23.82C23.04 23.63 23.42 23.51 23.94 23.66C23.68 23.87 23.42 23.83 23.15 23.93L23.1 23.94ZM29.52 19.68C29.49 19.84 29.49 20.25 29.24 20.09C29 19.57 29.25 19.7 29.52 19.68ZM36.22 12.45C36.25 12.63 36.09 12.66 35.85 12.61C35.92 12.51 36.03 12.44 36.22 12.45ZM60.07 6.41998C60.07 6.41998 60.07 6.43998 60.07 6.44998C59.75 6.34998 59.86 6.38998 60.07 6.41998ZM60.69 6.44998C60.73 6.36998 60.7 6.30998 60.66 6.24998C60.66 6.37998 60.53 6.41998 60.38 6.42998C60.46 6.53998 60.55 6.59998 60.69 6.44998ZM9.03 13.89L9.19 13.84C9.13 14.29 9.08 14.09 9.03 13.89Z" fill="#CE5374"/>
<path d="M35.78 13.64C35.7 13.6 35.64 13.53 35.57 13.47C35.58 13.56 35.64 13.64 35.78 13.64Z" fill="#CE5374"/>
<path d="M17.17 22V21.98C17.17 21.98 17.1 22 17.07 22.02L17.17 22Z" fill="#CE5374"/>
<path d="M52.61 12.47C52.47 12.4 52.39 12.31 52.34 12.22C52.34 12.34 52.4 12.44 52.61 12.47Z" fill="#CE5374"/>
<path d="M63.39 4.78998L63.07 5.01998C63.24 4.94998 63.33 5.01998 63.44 5.07998C63.4 4.96998 63.29 4.83998 63.39 4.79998V4.78998Z" fill="#CE5374"/>
<path d="M67.33 6.72002C67.37 6.65002 67.44 6.68002 67.47 6.61002L67.39 6.40002C67.17 6.48002 67.07 6.70002 67.33 6.72002Z" fill="#CE5374"/>
<path d="M64.18 6.21999C64.32 6.59999 64.51 6.39999 64.74 6.25999C64.73 6.25999 64.71 6.26999 64.7 6.26999C64.61 5.69999 64.4 5.95999 64.19 6.21999H64.18Z" fill="#CE5374"/>
<path d="M64.79 6.22998C64.86 6.18998 64.94 6.15998 65.02 6.14998C64.98 5.91998 64.91 6.12998 64.79 6.22998Z" fill="#CE5374"/>
<path d="M61.31 5.97998C61.46 6.03998 61.24 5.45998 61.35 5.59998C61.33 5.06998 60.74 6.42998 61.31 5.97998Z" fill="#CE5374"/>
<path d="M64.76 7.43999L64.53 6.98999L64.51 7.41999L64.76 7.43999Z" fill="#CE5374"/>
<path d="M62.69 7.68H63.13C63.1 7.62 63.13 7.55 63.19 7.5C62.94 7.56 62.64 7.54 62.69 7.68Z" fill="#CE5374"/>
<path d="M63.19 7.50001C63.32 7.47001 63.44 7.42001 63.49 7.32001C63.42 7.35001 63.28 7.41001 63.19 7.50001Z" fill="#CE5374"/>
<path d="M64.26 7.75L64.11 7.69L63.82 7.73L64.26 7.75Z" fill="#CE5374"/>
<path d="M58.38 8.85999L57.99 9.12999C57.99 9.30999 58.14 9.36999 58.28 9.25999C58.35 9.10999 58.49 8.99999 58.38 8.85999Z" fill="#CE5374"/>
<path d="M60.09 9.78998C59.94 9.72998 59.9 9.61998 59.79 9.47998L59.95 10.08L60.09 9.78998Z" fill="#CE5374"/>
<path d="M58.86 10.3C58.86 10.48 58.36 10.96 58.91 10.76C58.91 10.58 59.3 10.32 58.86 10.3Z" fill="#CE5374"/>
<path d="M51.85 10.76L51.97 10.75L51.98 9.72998L51.85 10.76Z" fill="#CE5374"/>
<path d="M44.91 10.45C45.14 10.9 45.34 9.97997 45.53 10.49C45.76 10.36 45.37 10.07 45.59 9.96997C45.2 10.01 45.18 9.82997 44.91 10.45Z" fill="#CE5374"/>
<path d="M45.6 9.96999C45.66 9.96999 45.73 9.94999 45.82 9.92999C45.71 9.92999 45.65 9.94999 45.6 9.96999Z" fill="#CE5374"/>
<path d="M0.31 34.35L0 34.62L0.39 34.51L0.31 34.35Z" fill="#CE5374"/>
<path d="M0.829999 35.22L0.189999 35.1L0.689999 35.48C0.689999 35.4 0.679999 35.23 0.839999 35.22H0.829999Z" fill="#CE5374"/>
<path d="M31.12 20.03L31.04 19.89C30.89 19.8 30.82 19.84 30.67 19.93L31.12 20.03Z" fill="#CE5374"/>
<path d="M26.9 22.79L26.99 22.75L26.51 22.37L26.9 22.79Z" fill="#CE5374"/>
<path d="M20.94 25.2C21.25 25.27 21.63 25.18 21.94 25.2C21.23 25.29 20.97 24.45 20.94 25.2Z" fill="#CE5374"/>
</g>
<defs>
<clipPath id="clip0_8_245">
<rect width="79.69" height="35.48" fill="white"/>
</clipPath>
</defs>
</svg>
