<svg width="57" height="64" viewBox="0 0 57 64" fill="none" xmlns="http://www.w3.org/2000/svg">
<g clip-path="url(#clip0_27_204)">
<path d="M57 0.421265L51.8072 57.4947L28.4651 63.8435L5.18735 57.5036L0 0.421265H57Z" fill="#264DE4"/>
<path d="M47.3615 53.8605L51.7991 5.08862H28.5V58.9908L47.3615 53.8605Z" fill="#2965F1"/>
<path d="M11.8919 26.2598L12.5314 33.2606H28.5V26.2598H11.8919Z" fill="#EBEBEB"/>
<path d="M28.5 12.0896H28.4753H10.6068L11.2555 19.0906H28.5V12.0896Z" fill="#EBEBEB"/>
<path d="M28.5 51.7256V44.4417L28.4687 44.4499L20.5215 42.3445L20.0135 36.761H16.1518H12.8503L13.85 47.7534L28.4672 51.7345L28.5 51.7256Z" fill="#EBEBEB"/>
<path d="M37.2623 33.2605L36.434 42.3401L28.4753 44.4476V51.7312L43.1041 47.7535L43.2115 46.5707L44.8883 28.1396L45.0624 26.2596L46.3506 12.0896H28.4753V19.0906H38.5304L37.8811 26.2596H28.4753V33.2605H37.2623Z" fill="white"/>
</g>
<defs>
<clipPath id="clip0_27_204">
<rect width="57" height="63.4223" fill="white" transform="translate(0 0.421265)"/>
</clipPath>
</defs>
</svg>
