<svg width="64" height="64" viewBox="0 0 64 64" fill="none" xmlns="http://www.w3.org/2000/svg">
<g clip-path="url(#clip0_27_228)">
<path d="M62.7172 29.1931L34.8077 1.28559C34.4253 0.903028 33.9714 0.599545 33.4717 0.392488C32.9721 0.185431 32.4365 0.0788574 31.8957 0.0788574C31.3548 0.0788574 30.8192 0.185431 30.3196 0.392488C29.8199 0.599545 29.366 0.903028 28.9837 1.28559L23.1903 7.08177L30.5405 14.432C31.4047 14.1386 32.3337 14.0927 33.2225 14.2998C34.1114 14.5068 34.9246 14.9584 35.5701 15.6035C36.2192 16.2533 36.6723 17.0727 36.8777 17.9679C37.083 18.8631 37.0322 19.798 36.7311 20.6658L43.8177 27.7503C44.6857 27.4488 45.621 27.3981 46.5165 27.6038C47.412 27.8095 48.2313 28.2634 48.8807 28.9134C49.3356 29.3682 49.6964 29.9081 49.9426 30.5024C50.1887 31.0966 50.3154 31.7335 50.3154 32.3767C50.3154 33.0199 50.1887 33.6568 49.9426 34.2511C49.6964 34.8453 49.3356 35.3853 48.8807 35.84C47.9611 36.7587 46.7144 37.2747 45.4146 37.2747C44.1148 37.2747 42.8681 36.7587 41.9485 35.84C41.2654 35.1558 40.7999 34.2847 40.6108 33.3365C40.4217 32.3883 40.5173 31.4053 40.8856 30.5113L34.2769 23.9047V41.2939C34.9744 41.6385 35.5798 42.1443 36.043 42.7695C36.5061 43.3946 36.8136 44.1211 36.9401 44.8887C37.0666 45.6564 37.0083 46.4431 36.7702 47.1838C36.5321 47.9245 36.1209 48.5977 35.5708 49.1479C35.116 49.6027 34.5761 49.9635 33.9818 50.2097C33.3876 50.4559 32.7507 50.5826 32.1075 50.5826C31.4643 50.5826 30.8274 50.4559 30.2331 50.2097C29.6389 49.9635 29.099 49.6027 28.6442 49.1479C28.1892 48.6931 27.8283 48.1531 27.5821 47.5588C27.3358 46.9645 27.2091 46.3275 27.2091 45.6842C27.2091 45.0409 27.3358 44.4039 27.5821 43.8096C27.8283 43.2153 28.1892 42.6753 28.6442 42.2206C29.1025 41.7613 29.6472 41.3974 30.247 41.1499V23.6007C29.6497 23.3547 29.1069 22.9931 28.6498 22.5367C28.1927 22.0803 27.8302 21.5381 27.5833 20.9412C27.3364 20.3443 27.2098 19.7044 27.2109 19.0585C27.212 18.4125 27.3407 17.7731 27.5896 17.1771L20.3423 9.92838L1.20348 29.0623C0.432249 29.835 -0.000896454 30.8822 -0.000896454 31.9739C-0.000896454 33.0657 0.432249 34.1129 1.20348 34.8856L29.1144 62.7966C29.8871 63.5676 30.9342 64.0006 32.0257 64.0006C33.1173 64.0006 34.1643 63.5676 34.937 62.7966L62.7172 35.0164C63.4884 34.2436 63.9216 33.1965 63.9216 32.1047C63.9216 31.013 63.4884 29.9658 62.7172 29.1931Z" fill="#F03C2E"/>
</g>
<defs>
<clipPath id="clip0_27_228">
<rect width="64" height="64" fill="white"/>
</clipPath>
</defs>
</svg>
