<svg width="64" height="65" viewBox="0 0 64 65" fill="none" xmlns="http://www.w3.org/2000/svg">
<g clip-path="url(#clip0_27_252)">
<path d="M31.6189 0.956329C28.9799 0.968348 26.4597 1.18895 24.2423 1.57354C17.7098 2.7047 16.5237 5.07232 16.5237 9.43861V15.2052H31.9608V17.1273H16.5237H10.7304C6.24394 17.1273 2.3155 19.7704 1.08673 24.7984C-0.330638 30.5617 -0.393506 34.1581 1.08673 40.1759C2.18405 44.6553 4.80459 47.8469 9.29102 47.8469H14.5986V40.9342C14.5986 35.9401 19.0071 31.5349 24.2423 31.5349H39.6613C43.9534 31.5349 47.3798 28.071 47.3798 23.8461V9.43861C47.3798 5.33815 43.8505 2.25789 39.6613 1.57354C37.0094 1.14087 34.2579 0.94431 31.6189 0.956329ZM23.2707 5.59425C24.8652 5.59425 26.1674 6.8914 26.1674 8.48634C26.1674 10.0756 24.8652 11.3608 23.2707 11.3608C21.6704 11.3608 20.374 10.0756 20.374 8.48634C20.374 6.8914 21.6704 5.59425 23.2707 5.59425Z" fill="url(#paint0_linear_27_252)"/>
<path d="M49.3049 17.1273V23.8461C49.3049 29.0551 44.7992 33.4394 39.6613 33.4394H24.2423C20.0187 33.4394 16.5238 36.9824 16.5238 41.1281V55.5357C16.5238 59.6361 20.1616 62.048 24.2423 63.2244C29.1288 64.6327 33.8146 64.8872 39.6613 63.2244C43.5476 62.1215 47.3798 59.9019 47.3798 55.5357V49.7691H31.9608V47.8469H47.3798H55.0983C59.5847 47.8469 61.2566 44.7797 62.8168 40.1758C64.4285 35.4363 64.3599 30.8784 62.8168 24.7984C61.7081 20.4208 59.5904 17.1273 55.0983 17.1273H49.3049ZM40.6328 53.6135C42.2331 53.6135 43.5295 54.8986 43.5295 56.4879C43.5295 58.0829 42.2331 59.38 40.6328 59.38C39.0383 59.38 37.7362 58.0829 37.7362 56.4879C37.7362 54.8986 39.0383 53.6135 40.6328 53.6135Z" fill="url(#paint1_linear_27_252)"/>
</g>
<defs>
<linearGradient id="paint0_linear_27_252" x1="-1.92231e-07" y1="0.95581" x2="34.9937" y2="31.3793" gradientUnits="userSpaceOnUse">
<stop stop-color="#5A9FD4"/>
<stop offset="1" stop-color="#306998"/>
</linearGradient>
<linearGradient id="paint1_linear_27_252" x1="40.2619" y1="56.0031" x2="27.8285" y2="38.2273" gradientUnits="userSpaceOnUse">
<stop stop-color="#FFD43B"/>
<stop offset="1" stop-color="#FFE873"/>
</linearGradient>
<clipPath id="clip0_27_252">
<rect width="64" height="63.4223" fill="white" transform="translate(0 0.955811)"/>
</clipPath>
</defs>
</svg>
