<svg width="64" height="48" viewBox="0 0 64 48" fill="none" xmlns="http://www.w3.org/2000/svg">
<g clip-path="url(#clip0_27_215)">
<path d="M55.0738 27.5886C52.8423 27.6003 50.9029 28.138 49.279 28.9329C48.6832 27.7522 48.0873 26.7001 47.9822 25.9286C47.8653 25.0284 47.7251 24.479 47.8653 23.4035C48.0055 22.328 48.6364 20.7965 48.6247 20.6796C48.6131 20.5627 48.4845 20.0133 47.1994 20.0016C45.9143 19.9899 44.8044 20.2471 44.6758 20.5861C44.5473 20.9251 44.302 21.6967 44.1384 22.4916C43.9164 23.6607 41.5681 27.8341 40.2246 30.0201C39.7923 29.1667 39.4185 28.4186 39.3367 27.8224C39.2198 26.9222 39.0796 26.3728 39.2198 25.2973C39.36 24.2218 39.9909 22.6904 39.9792 22.5735C39.9676 22.4566 39.839 21.9071 38.5539 21.8954C37.2688 21.8837 36.1589 22.1409 36.0304 22.4799C35.9018 22.819 35.7616 23.6139 35.4929 24.3854C35.2242 25.157 32.1048 32.1244 31.287 33.9247C30.8664 34.8482 30.5043 35.5847 30.2472 36.0873C30.2472 36.0873 30.2355 36.1224 30.2005 36.1809C29.9785 36.6134 29.85 36.8472 29.85 36.8472C29.85 36.8472 29.85 36.8472 29.85 36.8589C29.6748 37.1745 29.4878 37.4668 29.3944 37.4668C29.3243 37.4668 29.1957 36.6251 29.4177 35.4795C29.885 33.0596 30.9949 29.2953 30.9833 29.1667C30.9833 29.0966 31.1936 28.4419 30.2589 28.1029C29.3476 27.7639 29.0205 28.325 28.9387 28.325C28.8569 28.325 28.7985 28.5238 28.7985 28.5238C28.7985 28.5238 29.815 24.2919 26.8591 24.2919C25.0132 24.2919 22.4663 26.3143 21.2045 28.138C20.4101 28.5705 18.716 29.4941 16.9051 30.4877C16.2158 30.8735 15.5032 31.2593 14.8372 31.6217C14.7905 31.5749 14.7438 31.5165 14.697 31.4697C11.122 27.647 4.50937 24.9466 4.78976 19.8146C4.89491 17.9441 5.53748 13.0342 17.4893 7.07224C27.3265 2.22081 35.1541 3.56518 36.5094 6.54618C38.4488 10.8014 32.3151 18.704 22.1508 19.8496C18.2721 20.2822 16.2392 18.7858 15.7251 18.2247C15.1877 17.6402 15.1059 17.6051 14.9073 17.722C14.5802 17.8974 14.7905 18.4234 14.9073 18.7274C15.2111 19.5223 16.4612 20.9251 18.5758 21.6149C20.4451 22.2228 24.9898 22.5618 30.4926 20.4342C36.6496 18.0494 41.463 11.421 40.0493 5.86815C38.6357 0.23347 29.2892 -1.62527 20.4451 1.51939C15.1877 3.38983 9.48636 6.33576 5.3856 10.1701C0.513747 14.7293 -0.257337 18.6923 0.0581065 20.3523C1.19137 26.2442 9.31112 30.0786 12.559 32.9193C12.3955 33.0128 12.2436 33.0947 12.1151 33.1648C10.4911 33.9714 4.29907 37.2096 2.7569 40.6348C1.00444 44.516 3.0373 47.2983 4.38085 47.6723C8.55172 48.8297 12.8394 46.7488 15.141 43.3119C17.4426 39.875 17.1622 35.4093 16.099 33.3635C16.0873 33.3401 16.0756 33.3168 16.0523 33.2934C16.4729 33.0479 16.9051 32.7907 17.3257 32.5452C18.1552 32.0542 18.973 31.5983 19.674 31.2242C19.2768 32.3114 18.9847 33.609 18.8445 35.4795C18.6693 37.6772 19.5689 40.5296 20.7489 41.6519C21.2746 42.1429 21.8938 42.1546 22.291 42.1546C23.6696 42.1546 24.2888 41.0089 24.9781 39.6529C25.8193 37.9928 26.5787 36.064 26.5787 36.064C26.5787 36.064 25.6324 41.2778 28.2027 41.2778C29.1373 41.2778 30.0837 40.062 30.5043 39.4424C30.5043 39.4541 30.5043 39.4541 30.5043 39.4541C30.5043 39.4541 30.5276 39.4191 30.5744 39.3372C30.6678 39.1852 30.7262 39.0917 30.7262 39.0917C30.7262 39.0917 30.7262 39.08 30.7262 39.0683C31.1001 38.4137 31.9413 36.929 33.1914 34.4624C34.8036 31.2827 36.3575 27.308 36.3575 27.308C36.3575 27.308 36.4977 28.2783 36.9767 29.8915C37.2571 30.8384 37.8412 31.8789 38.3086 32.8842C37.9347 33.4103 37.701 33.7025 37.701 33.7025C37.701 33.7025 37.701 33.7025 37.7127 33.7142C37.409 34.1117 37.0818 34.5442 36.7197 34.9651C35.4462 36.4848 33.9274 38.2267 33.7171 38.7293C33.4718 39.3255 33.5302 39.7581 33.9975 40.1088C34.3363 40.366 34.9438 40.401 35.563 40.366C36.708 40.2841 37.5141 40.0036 37.9113 39.8282C38.5305 39.6061 39.2549 39.2671 39.9325 38.7644C41.1826 37.8409 41.942 36.5199 41.8719 34.778C41.8369 33.8194 41.5214 32.8608 41.1359 31.9607C41.2527 31.797 41.3578 31.6334 41.4747 31.4697C43.4491 28.5822 44.9796 25.4142 44.9796 25.4142C44.9796 25.4142 45.1198 26.3845 45.5988 27.9977C45.8325 28.816 46.3115 29.7045 46.7321 30.5696C44.8745 32.0776 43.7295 33.8311 43.3206 34.9768C42.5846 37.1044 43.157 38.063 44.2436 38.2851C44.7343 38.3903 45.4352 38.1565 45.9493 37.9344C46.6036 37.724 47.3746 37.3616 48.1107 36.8238C49.3608 35.9003 50.5641 34.6144 50.494 32.8725C50.459 32.0776 50.2487 31.2944 49.9566 30.5345C51.5338 29.8798 53.5667 29.5174 56.1603 29.8214C61.7215 30.476 62.8197 33.948 62.6094 35.4093C62.3991 36.8706 61.2308 37.6655 60.8453 37.911C60.4597 38.1565 60.3312 38.2383 60.3663 38.4137C60.413 38.6709 60.5999 38.6592 60.927 38.6124C61.3827 38.5306 63.8478 37.4317 63.953 34.743C64.1282 31.306 60.8569 27.5535 55.0738 27.5886ZM12.1735 42.061C10.3275 44.0718 7.75727 44.8316 6.64737 44.1887C5.4557 43.4989 5.92302 40.5296 8.18954 38.402C9.56815 37.1044 11.344 35.9003 12.524 35.1638C12.7927 35.0002 13.1899 34.7663 13.6689 34.4741C13.7507 34.4273 13.7974 34.4039 13.7974 34.4039C13.8909 34.3455 13.9844 34.287 14.0778 34.2286C14.9073 37.2681 14.1129 39.9451 12.1735 42.061ZM25.609 32.9193C24.9665 34.4858 23.6229 38.4955 22.8051 38.2734C22.1041 38.0864 21.6718 35.0469 22.6649 32.0425C23.1673 30.5345 24.2304 28.7342 24.8496 28.0328C25.8544 26.9105 26.9643 26.5364 27.233 26.9924C27.5718 27.5886 26.0063 31.9373 25.609 32.9193ZM36.6963 38.2267C36.4276 38.3669 36.1706 38.4605 36.0537 38.3903C35.9719 38.3436 36.1706 38.1565 36.1706 38.1565C36.1706 38.1565 37.5608 36.6602 38.11 35.9821C38.4254 35.5847 38.7993 35.1171 39.1965 34.591C39.1965 34.6378 39.1965 34.6962 39.1965 34.743C39.1965 36.5316 37.4674 37.7357 36.6963 38.2267ZM45.2483 36.2744C45.0497 36.1341 45.0848 35.6665 45.7507 34.2052C46.0077 33.6324 46.6152 32.6738 47.655 31.7503C47.7719 32.1244 47.8537 32.4868 47.842 32.8258C47.8303 35.082 46.218 35.9237 45.2483 36.2744Z" fill="#CD6799"/>
</g>
<defs>
<clipPath id="clip0_27_215">
<rect width="64" height="48" fill="white"/>
</clipPath>
</defs>
</svg>
